<mxfile host="app.diagrams.net" modified="2024-05-11T07:44:11.144Z" agent="Mozilla/5.0 (Windows NT 10.0; Win64; x64; rv:125.0) Gecko/20100101 Firefox/125.0" etag="fjPR_RYIp1J8zVjS_AB4" version="24.3.1" type="device">
  <diagram name="Page-1" id="dMtSpVoixBMkemtL0LOx">
    <mxGraphModel dx="880" dy="442" grid="1" gridSize="10" guides="1" tooltips="1" connect="1" arrows="1" fold="1" page="1" pageScale="1" pageWidth="850" pageHeight="1100" math="0" shadow="0">
      <root>
        <mxCell id="0" />
        <mxCell id="1" parent="0" />
        <mxCell id="Dt0bVZkmCuZ6N-XTu5sN-1" value="User" style="swimlane;fontStyle=1;align=center;verticalAlign=top;childLayout=stackLayout;horizontal=1;startSize=26;horizontalStack=0;resizeParent=1;resizeParentMax=0;resizeLast=0;collapsible=1;marginBottom=0;whiteSpace=wrap;html=1;" vertex="1" parent="1">
          <mxGeometry x="20" y="80" width="390" height="250" as="geometry" />
        </mxCell>
        <mxCell id="Dt0bVZkmCuZ6N-XTu5sN-2" value="&lt;div&gt;&lt;br&gt;&lt;/div&gt;&lt;div&gt;+ user_id: Int&lt;br&gt;&lt;/div&gt;&lt;div&gt;+ username: String&lt;/div&gt;&lt;div&gt;+ password: String&lt;/div&gt;&lt;div&gt;+ first_name: String&lt;/div&gt;&lt;div&gt;+ last_name: String&lt;/div&gt;&lt;div&gt;+ created_on: TIMESTAMP&lt;/div&gt;&lt;div&gt;&lt;br&gt;&lt;/div&gt;" style="text;strokeColor=none;fillColor=none;align=left;verticalAlign=top;spacingLeft=4;spacingRight=4;overflow=hidden;rotatable=0;points=[[0,0.5],[1,0.5]];portConstraint=eastwest;whiteSpace=wrap;html=1;" vertex="1" parent="Dt0bVZkmCuZ6N-XTu5sN-1">
          <mxGeometry y="26" width="390" height="134" as="geometry" />
        </mxCell>
        <mxCell id="Dt0bVZkmCuZ6N-XTu5sN-3" value="" style="line;strokeWidth=1;fillColor=none;align=left;verticalAlign=middle;spacingTop=-1;spacingLeft=3;spacingRight=3;rotatable=0;labelPosition=right;points=[];portConstraint=eastwest;strokeColor=inherit;" vertex="1" parent="Dt0bVZkmCuZ6N-XTu5sN-1">
          <mxGeometry y="160" width="390" height="10" as="geometry" />
        </mxCell>
        <mxCell id="Dt0bVZkmCuZ6N-XTu5sN-4" value="&lt;div&gt;+ getters and setters&lt;/div&gt;" style="text;strokeColor=none;fillColor=none;align=left;verticalAlign=top;spacingLeft=4;spacingRight=4;overflow=hidden;rotatable=0;points=[[0,0.5],[1,0.5]];portConstraint=eastwest;whiteSpace=wrap;html=1;" vertex="1" parent="Dt0bVZkmCuZ6N-XTu5sN-1">
          <mxGeometry y="170" width="390" height="80" as="geometry" />
        </mxCell>
        <mxCell id="Dt0bVZkmCuZ6N-XTu5sN-7" value="Record" style="swimlane;fontStyle=1;align=center;verticalAlign=top;childLayout=stackLayout;horizontal=1;startSize=26;horizontalStack=0;resizeParent=1;resizeParentMax=0;resizeLast=0;collapsible=1;marginBottom=0;whiteSpace=wrap;html=1;" vertex="1" parent="1">
          <mxGeometry x="490" y="120" width="220" height="260" as="geometry" />
        </mxCell>
        <mxCell id="Dt0bVZkmCuZ6N-XTu5sN-8" value="&lt;div&gt;+ record_id: int&lt;/div&gt;&lt;div&gt;+ user_id: int&lt;/div&gt;&lt;div&gt;+ name: String&lt;/div&gt;&lt;div&gt;+ media_type: String&lt;/div&gt;&lt;div&gt;+ current_season_no: int&lt;/div&gt;&lt;div&gt;+ current_episode: int&lt;/div&gt;&lt;div&gt;+ full_season_no: int&lt;/div&gt;&lt;div&gt;+ full_season_episodes: int&lt;/div&gt;&lt;div&gt;+ current_episode_non_season: int&lt;/div&gt;&lt;div&gt;+ full_episode_non_season: int&lt;/div&gt;&lt;div&gt;+ finished_airing: Date&lt;/div&gt;&lt;div&gt;+ completion_rate: int&lt;/div&gt;&lt;div&gt;&lt;br&gt;&lt;/div&gt;" style="text;strokeColor=none;fillColor=none;align=left;verticalAlign=top;spacingLeft=4;spacingRight=4;overflow=hidden;rotatable=0;points=[[0,0.5],[1,0.5]];portConstraint=eastwest;whiteSpace=wrap;html=1;" vertex="1" parent="Dt0bVZkmCuZ6N-XTu5sN-7">
          <mxGeometry y="26" width="220" height="194" as="geometry" />
        </mxCell>
        <mxCell id="Dt0bVZkmCuZ6N-XTu5sN-9" value="" style="line;strokeWidth=1;fillColor=none;align=left;verticalAlign=middle;spacingTop=-1;spacingLeft=3;spacingRight=3;rotatable=0;labelPosition=right;points=[];portConstraint=eastwest;strokeColor=inherit;" vertex="1" parent="Dt0bVZkmCuZ6N-XTu5sN-7">
          <mxGeometry y="220" width="220" height="8" as="geometry" />
        </mxCell>
        <mxCell id="Dt0bVZkmCuZ6N-XTu5sN-10" value="+ getters and setters" style="text;strokeColor=none;fillColor=none;align=left;verticalAlign=top;spacingLeft=4;spacingRight=4;overflow=hidden;rotatable=0;points=[[0,0.5],[1,0.5]];portConstraint=eastwest;whiteSpace=wrap;html=1;" vertex="1" parent="Dt0bVZkmCuZ6N-XTu5sN-7">
          <mxGeometry y="228" width="220" height="32" as="geometry" />
        </mxCell>
        <mxCell id="Dt0bVZkmCuZ6N-XTu5sN-11" style="edgeStyle=orthogonalEdgeStyle;rounded=0;orthogonalLoop=1;jettySize=auto;html=1;entryX=0;entryY=0.5;entryDx=0;entryDy=0;" edge="1" parent="1" source="Dt0bVZkmCuZ6N-XTu5sN-2" target="Dt0bVZkmCuZ6N-XTu5sN-8">
          <mxGeometry relative="1" as="geometry" />
        </mxCell>
      </root>
    </mxGraphModel>
  </diagram>
</mxfile>
